<?xml version="1.0" standalone="no"?>
<!DOCTYPE svg PUBLIC "-//W3C//DTD SVG 20010904//EN"
 "http://www.w3.org/TR/2001/REC-SVG-20010904/DTD/svg10.dtd">
<svg version="1.0" xmlns="http://www.w3.org/2000/svg"
 width="24.000000pt" height="24.000000pt" viewBox="0 0 24.000000 24.000000"
 preserveAspectRatio="xMidYMid meet">

<g transform="translate(0.000000,24.000000) scale(0.100000,-0.100000)"
fill="#000000" stroke="none">
<path d="M0 120 l0 -110 30 0 c29 0 30 2 30 45 0 31 -4 45 -14 45 -13 0 -26
48 -26 103 0 15 -4 27 -10 27 -6 0 -10 -43 -10 -110z"/>
<path d="M172 208 c2 -13 8 -23 13 -23 6 0 11 10 13 23 2 15 -2 22 -13 22 -11
0 -15 -7 -13 -22z"/>
<path d="M136 183 c-12 -12 -6 -43 9 -43 8 0 15 9 15 19 0 21 -13 34 -24 24z"/>
<path d="M90 74 c0 -20 4 -25 16 -20 9 3 22 6 30 6 8 0 14 9 14 20 0 16 -7 20
-30 20 -26 0 -30 -4 -30 -26z"/>
<path d="M170 55 c0 -45 0 -45 35 -45 35 0 35 0 35 45 0 45 0 45 -35 45 -35 0
-35 0 -35 -45z"/>
</g>
</svg>
